PathFileType	4	(X/Y/Z)	C:\Users\WrightLab\Desktop\Jo\P2_Trial13.trc
DataRate	CameraRate	NumFrames	NumMarkers	Units	OrigDataRate	OrigDataStartFrame	OrigNumFrames
100.00	100.00	       54	19	mm	100.00	1	       567
Frame#	Time	Headset_Front			Headset_Back			Headset_Left			Headset_Right			Left_Shoulder			Right_Shoulder			Sternum			C7			Left Elbow			Right Elbow			Left Wrist			Right Wrist			Left ASIS			Right ASIS			S2			Left Knee			Right Knee			Left Ankle			Right Ankle			
		X1	Y1	Z1	X2	Y2	Z2	X3	Y3	Z3	X4	Y4	Z4	X5	Y5	Z5	X6	Y6	Z6	X7	Y7	Z7	X8	Y8	Z8	X9	Y9	Z9	X10	Y10	Z10	X11	Y11	Z11	X12	Y12	Z12	X13	Y13	Z13	X14	Y14	Z14	X15	Y15	Z15	X16	Y16	Z16	X17	Y17	Z17	X18	Y18	Z18	X19	Y19	Z19	

1	0.000																									25.58183	1070.63159	-1549.75183							-516.86920	835.66577	-1567.17871										-45.14538	412.52481	-1594.51172										
2	0.010																									23.32604	1070.83276	-1546.97510							-518.80908	834.78290	-1568.43579										-45.88513	412.84821	-1594.47729										
3	0.020																									20.65927	1070.66516	-1543.41370							-520.89996	832.14624	-1565.13721										-45.02833	413.52606	-1595.02856										
4	0.030																									18.67510	1070.69165	-1541.09973							-523.71912	833.97888	-1570.94189										-47.21453	412.87006	-1594.68311										
5	0.040																									19.67799	1069.95667	-1545.99084							-525.75464	833.17188	-1571.88965										-47.37453	412.98962	-1594.64819										
6	0.050																									12.89514	1069.95447	-1533.21033							-528.21887	832.50348	-1572.59204										-48.17656	412.35165	-1594.35815										
7	0.060																									11.01291	1069.40454	-1533.37012							-530.97314	832.23535	-1573.79089										-48.68299	412.45920	-1594.88538										
8	0.070																									8.34954	1068.88135	-1529.83301							-531.90607	831.17139	-1573.25049	-218.98126	1013.52869	-1469.90759							-49.29670	413.24677	-1595.37415										
9	0.080																									5.60510	1068.82300	-1526.57996							-535.38513	831.69684	-1576.02771	-223.02687	1013.86572	-1463.98901							-51.01644	413.26556	-1594.39014										
10	0.090																									3.15022	1069.14685	-1524.17993							-538.11584	830.91351	-1576.44922	-224.96536	1013.15063	-1466.17151							-52.24710	412.13010	-1592.80029										
11	0.100																									0.30163	1068.97192	-1519.95471							-540.24384	830.35034	-1577.13623	-229.80969	1013.14154	-1459.60632							-53.78331	412.81732	-1592.74487										
12	0.110																									-2.97039	1068.41626	-1516.69946							-544.30194	828.86041	-1574.91174	-232.21754	1011.66888	-1459.17639							-54.40785	413.59857	-1592.67456										
13	0.120																									-5.58615	1067.81482	-1514.11121							-546.63776	828.04413	-1575.14954	-236.38205	1011.11975	-1458.10974							-55.97658	412.97092	-1591.25830										
14	0.130																									-8.90229	1067.75220	-1509.61951							-549.24939	827.23901	-1574.87329	-240.09375	1011.71820	-1454.33179							-58.46572	411.62137	-1588.74304										
15	0.140																									-11.78448	1067.52283	-1505.57275							-552.37415	826.96875	-1575.42004	-243.47333	1008.87750	-1454.50830							-59.09452	412.05740	-1587.15381										
16	0.150																									-14.69471	1067.25732	-1502.00732							-555.00336	826.82495	-1576.24231	-248.19331	1009.46088	-1447.05127							-61.00550	412.14490	-1586.60999										
17	0.160																									-18.25844	1067.64294	-1498.13037							-559.00690	825.27167	-1574.22229	-252.31357	1009.18506	-1445.77991							-62.75742	412.49026	-1585.23755										
18	0.170																									-20.54997	1067.62683	-1496.92578							-562.00171	823.65167	-1572.57996	-255.30084	1006.72595	-1448.84656							-65.25242	412.20090	-1582.97754										
19	0.180																									-23.62381	1067.35815	-1492.19702							-565.86517	823.41687	-1572.51782	-261.05521	1007.89990	-1438.47888							-67.02166	412.30685	-1580.65259										
20	0.190																									-26.50519	1067.61658	-1489.23962							-568.90051	823.14331	-1572.82300	-265.67325	1007.22009	-1436.26282							-70.15019	412.26007	-1577.24841										
21	0.200																									-29.66480	1067.30469	-1485.26538							-573.10480	822.18469	-1571.27258	-269.25974	1007.39795	-1433.61194							-71.40775	411.59277	-1573.85120										
22	0.210																									-33.44506	1066.80115	-1480.90015							-578.02509	821.83319	-1570.27014	-273.67487	1004.52972	-1432.49817							-73.69968	411.74194	-1571.62146										
23	0.220																									-36.56393	1067.10364	-1477.81689							-581.55103	820.38861	-1568.43311	-278.65961	1004.91943	-1428.51563							-77.33666	411.65421	-1568.01245										
24	0.230																									-40.49194	1066.94348	-1471.65027							-586.70673	820.23792	-1567.60010	-283.50620	1005.65674	-1423.77222							-79.58440	411.26117	-1565.29272										
25	0.240																									-42.64108	1066.88464	-1468.92920							-591.46338	819.45557	-1566.14014	-288.69147	1003.03986	-1420.53882							-84.09936	409.33582	-1559.56250										
26	0.250																									-46.92485	1066.97095	-1464.33557							-596.69037	817.97333	-1563.14587	-293.27856	1003.57141	-1415.92297							-85.32604	409.89667	-1556.72571										
27	0.260																									-49.34653	1066.50696	-1462.93872							-600.88861	816.39978	-1559.68518	-297.20010	1002.22797	-1414.36853							-90.20510	409.45395	-1553.24036										
28	0.270																									-53.25072	1065.61108	-1457.75269							-607.44635	817.68243	-1561.55383	-303.22778	1001.12677	-1409.17188							-94.49785	408.23453	-1547.47827										
29	0.280																									-57.42388	1066.21082	-1452.41296							-613.32617	816.37323	-1558.31738	-308.39944	1001.25641	-1406.42126							-97.70263	407.76276	-1543.74573										
30	0.290																									-61.07333	1065.27661	-1449.52844							-618.96979	814.91943	-1555.18567	-314.23065	1000.64746	-1400.93909							-102.68305	406.10638	-1538.30603										
31	0.300																									-62.88838	1065.66663	-1450.61597							-624.16180	813.77606	-1551.62561	-319.95572	999.81238	-1394.83606							-106.84978	406.02411	-1534.11548										
32	0.310																									-69.38979	1064.77759	-1441.15320							-631.13208	812.89825	-1549.30701	-325.79919	998.66595	-1389.42615							-112.64353	403.51987	-1527.67493										
33	0.320																									-74.09189	1064.01099	-1436.29199							-637.97772	812.02185	-1545.62610	-331.80298	997.53070	-1384.99707							-116.97063	403.71484	-1524.51514										
34	0.330																									-78.73325	1063.71912	-1432.38831							-644.55750	811.41797	-1541.91577	-337.50079	995.98132	-1383.62354							-123.55025	401.70370	-1518.74158										
35	0.340																									-83.72252	1063.56299	-1427.03430							-650.86194	811.35352	-1538.78552	-343.76328	995.23700	-1375.95642							-129.32346	400.98129	-1514.28247										
36	0.350																									-90.04698	1063.45044	-1421.29114							-657.65021	810.01965	-1532.46631	-348.97067	995.12726	-1373.53650							-136.04700	398.75333	-1508.12500										
37	0.360																									-94.63218	1063.27466	-1417.31934							-664.01343	810.89978	-1529.20813	-354.93225	993.19086	-1367.65833							-142.32938	397.20676	-1503.66589										
38	0.370																									-99.38984	1062.53784	-1415.15833							-670.64978	810.74738	-1523.46692	-361.00885	992.68524	-1365.07947							-149.26103	396.29532	-1498.96887										
39	0.380																									-106.52026	1062.30652	-1407.34241							-677.98370	811.41656	-1517.18103	-366.81610	993.06079	-1360.84668							-156.09714	395.87665	-1493.83643										
40	0.390																									-112.65442	1062.66223	-1404.25305							-684.32330	811.61981	-1510.29651	-371.82059	991.50238	-1358.54956							-164.33490	394.63596	-1488.09460										
41	0.400																									-118.22372	1062.87744	-1400.04895							-691.12488	812.50177	-1503.25183	-376.95316	991.63232	-1357.37415							-170.23549	395.46158	-1483.24353										
42	0.410																									-125.37473	1063.04150	-1394.30493							-697.12933	814.49445	-1497.82300	-382.64825	993.03943	-1354.21655							-177.83597	395.28387	-1477.79028										
43	0.420																									-131.11105	1063.18140	-1390.59741							-702.66058	815.55347	-1490.20215	-387.85706	995.18127	-1348.51538							-184.70636	396.18582	-1473.07129										
44	0.430																									-137.47005	1063.40771	-1387.23230							-709.68567	816.00342	-1479.90198	-393.73746	996.51141	-1346.43018							-191.42320	397.33438	-1467.43164										
45	0.440																									-143.91187	1064.18176	-1381.26062							-715.21210	818.20361	-1473.09338	-398.75482	998.94159	-1339.81177							-201.73523	398.28668	-1458.89429										
46	0.450																									-150.17535	1064.14063	-1378.59436							-720.92645	820.15204	-1464.98853	-402.56760	998.66443	-1343.40857							-212.17882	400.82159	-1449.74231										
47	0.460																									-155.80209	1064.22144	-1375.40552							-726.73071	821.42078	-1455.66809	-407.50873	1000.88287	-1336.38477							-223.23889	401.03622	-1438.33789										
48	0.470																									-161.48070	1064.95654	-1372.99219							-732.08948	822.53156	-1446.02869	-412.71341	1003.01459	-1330.84338							-237.33939	401.24344	-1434.65540										
49	0.480																									-168.43623	1065.28516	-1366.49084							-737.62817	824.53668	-1437.92065	-417.73749	1003.03754	-1326.28198							-249.72221	399.70209	-1426.18713										
50	0.490																									-172.88376	1065.38892	-1366.19556							-743.47131	821.26532	-1442.14429	-422.71396	1004.04010	-1317.91650							-261.89423	399.40460	-1415.56006										
51	0.500																									-178.60129	1064.98804	-1363.01563							-748.67480	822.94336	-1431.46448	-426.76740	1002.93530	-1317.38037							-274.30908	397.01984	-1406.21545										
52	0.510																									-183.98126	1065.73901	-1359.45056							-753.11267	828.33917	-1411.40210	-431.83310	1004.85382	-1311.21106							-283.93591	401.29636	-1385.40735										
53	0.520																									-188.74016	1065.92529	-1357.33374							-757.95593	824.84155	-1416.31360	-435.56833	1004.88708	-1309.64673							-290.18994	401.69418	-1374.26978										
54	0.530																									-193.59203	1066.02100	-1354.50732							-764.07745	825.25012	-1409.55652	-441.08621	1004.17407	-1303.56384							-296.35345	403.99710	-1360.81396										
